<?xml version="1.0" encoding="utf-8"?>
<!-- Generator: Adobe Illustrator 23.0.1, SVG Export Plug-In . SVG Version: 6.00 Build 0)  -->
<svg version="1.1"
	 id="svg2" xmlns:cc="http://creativecommons.org/ns#" xmlns:dc="http://purl.org/dc/elements/1.1/" xmlns:rdf="http://www.w3.org/1999/02/22-rdf-syntax-ns#" xmlns:svg="http://www.w3.org/2000/svg"
	 xmlns="http://www.w3.org/2000/svg" xmlns:xlink="http://www.w3.org/1999/xlink" x="0px" y="0px" viewBox="0 0 57.3 12"
	 style="enable-background:new 0 0 57.3 12;" xml:space="preserve">
<style type="text/css">
	.st0{fill:#D35400;}
	.st1{fill:#E67E22;}
	.st2{fill:#F39C12;}
	.st3{fill:#5C2500;}
	.st4{fill:#FFFC2A;}
	.st5{fill:#FFFD7F;}
	.st6{fill:#FFFEB2;}
</style>
<g id="g10" transform="matrix(1.3333333,0,0,-1.3333333,0,12)">
	<g id="g12" transform="scale(0.1)">
		<path id="path14" class="st0" d="M400,0h10v10h-10V0"/>
		<path id="path16" class="st0" d="M390,0h10v10h-10V0"/>
		<path id="path18" class="st0" d="M380,0h10v10h-10V0"/>
		<path id="path20" class="st0" d="M370,0h10v10h-10V0"/>
		<path id="path22" class="st0" d="M360,0h10v10h-10V0"/>
		<path id="path24" class="st0" d="M350,0h10v10h-10V0"/>
		<path id="path26" class="st0" d="M340,0h10v10h-10V0"/>
		<path id="path28" class="st0" d="M330,0h10v10h-10V0"/>
		<path id="path30" class="st0" d="M320,0h10v10h-10V0"/>
		<path id="path32" class="st0" d="M310,0h10v10h-10V0"/>
		<path id="path34" class="st0" d="M300,0h10v10h-10V0"/>
		<path id="path36" class="st0" d="M290,0h10v10h-10V0"/>
		<path id="path38" class="st0" d="M280,0h10v10h-10V0"/>
		<path id="path40" class="st0" d="M270,0h10v10h-10V0"/>
		<path id="path42" class="st0" d="M260,0h10v10h-10V0"/>
		<path id="path44" class="st0" d="M250,0h10v10h-10V0"/>
		<path id="path46" class="st0" d="M240,0h10v10h-10V0"/>
		<path id="path48" class="st0" d="M230,0h10v10h-10V0"/>
		<path id="path50" class="st0" d="M220,0h10v10h-10V0"/>
		<path id="path52" class="st0" d="M210,0h10v10h-10V0"/>
		<path id="path54" class="st0" d="M200,0h10v10h-10V0"/>
		<path id="path56" class="st0" d="M190,0h10v10h-10V0"/>
		<path id="path58" class="st0" d="M180,0h10v10h-10V0"/>
		<path id="path60" class="st0" d="M170,0h10v10h-10V0"/>
		<path id="path62" class="st0" d="M160,0h10v10h-10V0"/>
		<path id="path64" class="st0" d="M150,0h10v10h-10V0"/>
		<path id="path66" class="st0" d="M140,0h10v10h-10V0"/>
		<path id="path68" class="st0" d="M130,0h10v10h-10V0"/>
		<path id="path70" class="st0" d="M120,0h10v10h-10V0"/>
		<path id="path72" class="st0" d="M110,0h10v10h-10V0"/>
		<path id="path74" class="st0" d="M100,0h10v10h-10V0"/>
		<path id="path76" class="st0" d="M90,0h10v10H90V0"/>
		<path id="path78" class="st0" d="M80,0h10v10H80V0"/>
		<path id="path80" class="st0" d="M70,0h10v10H70V0"/>
		<path id="path82" class="st0" d="M60,0h10v10H60V0"/>
		<path id="path84" class="st0" d="M50,0h10v10H50V0"/>
		<path id="path86" class="st0" d="M40,0h10v10H40V0"/>
		<path id="path88" class="st0" d="M30,0h10v10H30L30,0"/>
		<path id="path90" class="st0" d="M20,0h10v10H20V0"/>
		<path id="path92" class="st0" d="M410,10h10v10h-10V10"/>
		<path id="path94" class="st1" d="M400,10h10v10h-10V10"/>
		<path id="path96" class="st1" d="M390,10h10v10h-10V10"/>
		<path id="path98" class="st1" d="M380,10h10v10h-10V10"/>
		<path id="path100" class="st1" d="M370,10h10v10h-10V10"/>
		<path id="path102" class="st1" d="M360,10h10v10h-10V10"/>
		<path id="path104" class="st1" d="M350,10h10v10h-10V10"/>
		<path id="path106" class="st1" d="M340,10h10v10h-10V10"/>
		<path id="path108" class="st1" d="M330,10h10v10h-10V10"/>
		<path id="path110" class="st1" d="M320,10h10v10h-10V10"/>
		<path id="path112" class="st1" d="M310,10h10v10h-10V10"/>
		<path id="path114" class="st1" d="M300,10h10v10h-10V10"/>
		<path id="path116" class="st1" d="M290,10h10v10h-10V10"/>
		<path id="path118" class="st1" d="M280,10h10v10h-10V10"/>
		<path id="path120" class="st1" d="M270,10h10v10h-10V10"/>
		<path id="path122" class="st1" d="M260,10h10v10h-10V10"/>
		<path id="path124" class="st1" d="M250,10h10v10h-10V10"/>
		<path id="path126" class="st1" d="M240,10h10v10h-10V10"/>
		<path id="path128" class="st1" d="M230,10h10v10h-10V10"/>
		<path id="path130" class="st1" d="M220,10h10v10h-10V10"/>
		<path id="path132" class="st1" d="M210,10h10v10h-10V10"/>
		<path id="path134" class="st1" d="M200,10h10v10h-10V10"/>
		<path id="path136" class="st1" d="M190,10h10v10h-10V10"/>
		<path id="path138" class="st1" d="M180,10h10v10h-10V10"/>
		<path id="path140" class="st1" d="M170,10h10v10h-10V10"/>
		<path id="path142" class="st1" d="M160,10h10v10h-10V10"/>
		<path id="path144" class="st1" d="M150,10h10v10h-10V10"/>
		<path id="path146" class="st1" d="M140,10h10v10h-10V10"/>
		<path id="path148" class="st1" d="M130,10h10v10h-10V10"/>
		<path id="path150" class="st1" d="M120,10h10v10h-10V10"/>
		<path id="path152" class="st1" d="M110,10h10v10h-10V10"/>
		<path id="path154" class="st1" d="M100,10h10v10h-10V10"/>
		<path id="path156" class="st1" d="M90,10h10v10H90V10"/>
		<path id="path158" class="st1" d="M80,10h10v10H80V10"/>
		<path id="path160" class="st1" d="M70,10h10v10H70V10"/>
		<path id="path162" class="st1" d="M60,10h10v10H60V10"/>
		<path id="path164" class="st1" d="M50,10h10v10H50V10"/>
		<path id="path166" class="st1" d="M40,10h10v10H40V10"/>
		<path id="path168" class="st1" d="M30,10h10v10H30L30,10"/>
		<path id="path170" class="st1" d="M20,10h10v10H20V10"/>
		<path id="path172" class="st0" d="M10,10h10v10H10V10"/>
		<path id="path174" class="st0" d="M420,20h10v10h-10V20"/>
		<path id="path176" class="st1" d="M410,20h10v10h-10V20"/>
		<path id="path178" class="st2" d="M400,20h10v10h-10V20"/>
		<path id="path180" class="st2" d="M390,20h10v10h-10V20"/>
		<path id="path182" class="st2" d="M380,20h10v10h-10V20"/>
		<path id="path184" class="st2" d="M370,20h10v10h-10V20"/>
		<path id="path186" class="st3" d="M360,20h10v10h-10V20"/>
		<path id="path188" class="st3" d="M350,20h10v10h-10V20"/>
		<path id="path190" class="st3" d="M340,20h10v10h-10V20"/>
		<path id="path192" class="st2" d="M330,20h10v10h-10V20"/>
		<path id="path194" class="st2" d="M320,20h10v10h-10V20"/>
		<path id="path196" class="st3" d="M310,20h10v10h-10V20"/>
		<path id="path198" class="st3" d="M300,20h10v10h-10V20"/>
		<path id="path200" class="st3" d="M290,20h10v10h-10V20"/>
		<path id="path202" class="st2" d="M280,20h10v10h-10V20"/>
		<path id="path204" class="st2" d="M270,20h10v10h-10V20"/>
		<path id="path206" class="st3" d="M260,20h10v10h-10V20"/>
		<path id="path208" class="st3" d="M250,20h10v10h-10V20"/>
		<path id="path210" class="st2" d="M240,20h10v10h-10V20"/>
		<path id="path212" class="st2" d="M230,20h10v10h-10V20"/>
		<path id="path214" class="st3" d="M220,20h10v10h-10V20"/>
		<path id="path216" class="st3" d="M210,20h10v10h-10V20"/>
		<path id="path218" class="st2" d="M200,20h10v10h-10V20"/>
		<path id="path220" class="st2" d="M190,20h10v10h-10V20"/>
		<path id="path222" class="st2" d="M180,20h10v10h-10V20"/>
		<path id="path224" class="st2" d="M170,20h10v10h-10V20"/>
		<path id="path226" class="st2" d="M160,20h10v10h-10V20"/>
		<path id="path228" class="st3" d="M150,20h10v10h-10V20"/>
		<path id="path230" class="st3" d="M140,20h10v10h-10V20"/>
		<path id="path232" class="st3" d="M130,20h10v10h-10V20"/>
		<path id="path234" class="st2" d="M120,20h10v10h-10V20"/>
		<path id="path236" class="st3" d="M110,20h10v10h-10V20"/>
		<path id="path238" class="st2" d="M100,20h10v10h-10V20"/>
		<path id="path240" class="st2" d="M90,20h10v10H90V20"/>
		<path id="path242" class="st2" d="M80,20h10v10H80V20"/>
		<path id="path244" class="st3" d="M70,20h10v10H70V20"/>
		<path id="path246" class="st2" d="M60,20h10v10H60V20"/>
		<path id="path248" class="st2" d="M50,20h10v10H50V20"/>
		<path id="path250" class="st2" d="M40,20h10v10H40V20"/>
		<path id="path252" class="st2" d="M30,20h10v10H30L30,20"/>
		<path id="path254" class="st2" d="M20,20h10v10H20V20"/>
		<path id="path256" class="st1" d="M10,20h10v10H10V20"/>
		<path id="path258" class="st0" d="M0,20h10v10H0V20"/>
		<path id="path260" class="st1" d="M420,30h10v10h-10V30"/>
		<path id="path262" class="st2" d="M410,30h10v10h-10V30"/>
		<path id="path264" class="st4" d="M400,30h10v10h-10V30"/>
		<path id="path266" class="st4" d="M390,30h10v10h-10V30"/>
		<path id="path268" class="st4" d="M380,30h10v10h-10V30"/>
		<path id="path270" class="st4" d="M370,30h10v10h-10V30"/>
		<path id="path272" class="st4" d="M360,30h10v10h-10V30"/>
		<path id="path274" class="st4" d="M350,30h10v10h-10V30"/>
		<path id="path276" class="st3" d="M340,30h10v10h-10V30"/>
		<path id="path278" class="st4" d="M330,30h10v10h-10V30"/>
		<path id="path280" class="st3" d="M320,30h10v10h-10V30"/>
		<path id="path282" class="st4" d="M310,30h10v10h-10V30"/>
		<path id="path284" class="st4" d="M300,30h10v10h-10V30"/>
		<path id="path286" class="st3" d="M290,30h10v10h-10V30"/>
		<path id="path288" class="st4" d="M280,30h10v10h-10V30"/>
		<path id="path290" class="st3" d="M270,30h10v10h-10V30"/>
		<path id="path292" class="st4" d="M260,30h10v10h-10V30"/>
		<path id="path294" class="st4" d="M250,30h10v10h-10V30"/>
		<path id="path296" class="st3" d="M240,30h10v10h-10V30"/>
		<path id="path298" class="st4" d="M230,30h10v10h-10V30"/>
		<path id="path300" class="st4" d="M220,30h10v10h-10V30"/>
		<path id="path302" class="st4" d="M210,30h10v10h-10V30"/>
		<path id="path304" class="st3" d="M200,30h10v10h-10V30"/>
		<path id="path306" class="st4" d="M190,30h10v10h-10V30"/>
		<path id="path308" class="st4" d="M180,30h10v10h-10V30"/>
		<path id="path310" class="st4" d="M170,30h10v10h-10V30"/>
		<path id="path312" class="st4" d="M160,30h10v10h-10V30"/>
		<path id="path314" class="st3" d="M150,30h10v10h-10V30"/>
		<path id="path316" class="st4" d="M140,30h10v10h-10V30"/>
		<path id="path318" class="st4" d="M130,30h10v10h-10V30"/>
		<path id="path320" class="st4" d="M120,30h10v10h-10V30"/>
		<path id="path322" class="st3" d="M110,30h10v10h-10V30"/>
		<path id="path324" class="st4" d="M100,30h10v10h-10V30"/>
		<path id="path326" class="st4" d="M90,30h10v10H90V30"/>
		<path id="path328" class="st4" d="M80,30h10v10H80V30"/>
		<path id="path330" class="st3" d="M70,30h10v10H70V30"/>
		<path id="path332" class="st4" d="M60,30h10v10H60V30"/>
		<path id="path334" class="st4" d="M50,30h10v10H50V30"/>
		<path id="path336" class="st4" d="M40,30h10v10H40V30"/>
		<path id="path338" class="st4" d="M30,30h10v10H30L30,30"/>
		<path id="path340" class="st4" d="M20,30h10v10H20V30"/>
		<path id="path342" class="st2" d="M10,30h10v10H10V30"/>
		<path id="path344" class="st1" d="M0,30h10v10H0V30"/>
		<path id="path346" class="st1" d="M420,40h10v10h-10V40"/>
		<path id="path348" class="st4" d="M410,40h10v10h-10V40"/>
		<path id="path350" class="st4" d="M400,40h10v10h-10V40"/>
		<path id="path352" class="st4" d="M390,40h10v10h-10V40"/>
		<path id="path354" class="st4" d="M380,40h10v10h-10V40"/>
		<path id="path356" class="st4" d="M370,40h10v10h-10V40"/>
		<path id="path358" class="st4" d="M360,40h10v10h-10V40"/>
		<path id="path360" class="st3" d="M350,40h10v10h-10V40"/>
		<path id="path362" class="st3" d="M340,40h10v10h-10V40"/>
		<path id="path364" class="st4" d="M330,40h10v10h-10V40"/>
		<path id="path366" class="st3" d="M320,40h10v10h-10V40"/>
		<path id="path368" class="st4" d="M310,40h10v10h-10V40"/>
		<path id="path370" class="st4" d="M300,40h10v10h-10V40"/>
		<path id="path372" class="st3" d="M290,40h10v10h-10V40"/>
		<path id="path374" class="st4" d="M280,40h10v10h-10V40"/>
		<path id="path376" class="st3" d="M270,40h10v10h-10V40"/>
		<path id="path378" class="st4" d="M260,40h10v10h-10V40"/>
		<path id="path380" class="st4" d="M250,40h10v10h-10V40"/>
		<path id="path382" class="st3" d="M240,40h10v10h-10V40"/>
		<path id="path384" class="st4" d="M230,40h10v10h-10V40"/>
		<path id="path386" class="st4" d="M220,40h10v10h-10V40"/>
		<path id="path388" class="st4" d="M210,40h10v10h-10V40"/>
		<path id="path390" class="st3" d="M200,40h10v10h-10V40"/>
		<path id="path392" class="st4" d="M190,40h10v10h-10V40"/>
		<path id="path394" class="st4" d="M180,40h10v10h-10V40"/>
		<path id="path396" class="st4" d="M170,40h10v10h-10V40"/>
		<path id="path398" class="st4" d="M160,40h10v10h-10V40"/>
		<path id="path400" class="st3" d="M150,40h10v10h-10V40"/>
		<path id="path402" class="st3" d="M140,40h10v10h-10V40"/>
		<path id="path404" class="st3" d="M130,40h10v10h-10V40"/>
		<path id="path406" class="st4" d="M120,40h10v10h-10V40"/>
		<path id="path408" class="st3" d="M110,40h10v10h-10V40"/>
		<path id="path410" class="st4" d="M100,40h10v10h-10V40"/>
		<path id="path412" class="st3" d="M90,40h10v10H90V40"/>
		<path id="path414" class="st4" d="M80,40h10v10H80V40"/>
		<path id="path416" class="st3" d="M70,40h10v10H70V40"/>
		<path id="path418" class="st4" d="M60,40h10v10H60V40"/>
		<path id="path420" class="st4" d="M50,40h10v10H50V40"/>
		<path id="path422" class="st4" d="M40,40h10v10H40V40"/>
		<path id="path424" class="st4" d="M30,40h10v10H30L30,40"/>
		<path id="path426" class="st4" d="M20,40h10v10H20V40"/>
		<path id="path428" class="st4" d="M10,40h10v10H10V40"/>
		<path id="path430" class="st1" d="M0,40h10v10H0V40"/>
		<path id="path432" class="st1" d="M420,50h10v10h-10V50"/>
		<path id="path434" class="st5" d="M410,50h10v10h-10V50"/>
		<path id="path436" class="st4" d="M400,50h10v10h-10V50"/>
		<path id="path438" class="st4" d="M390,50h10v10h-10V50"/>
		<path id="path440" class="st4" d="M380,50h10v10h-10V50"/>
		<path id="path442" class="st4" d="M370,50h10v10h-10V50"/>
		<path id="path444" class="st4" d="M360,50h10v10h-10V50"/>
		<path id="path446" class="st4" d="M350,50h10v10h-10V50"/>
		<path id="path448" class="st3" d="M340,50h10v10h-10V50"/>
		<path id="path450" class="st4" d="M330,50h10v10h-10V50"/>
		<path id="path452" class="st3" d="M320,50h10v10h-10V50"/>
		<path id="path454" class="st4" d="M310,50h10v10h-10V50"/>
		<path id="path456" class="st4" d="M300,50h10v10h-10V50"/>
		<path id="path458" class="st3" d="M290,50h10v10h-10V50"/>
		<path id="path460" class="st4" d="M280,50h10v10h-10V50"/>
		<path id="path462" class="st3" d="M270,50h10v10h-10V50"/>
		<path id="path464" class="st4" d="M260,50h10v10h-10V50"/>
		<path id="path466" class="st4" d="M250,50h10v10h-10V50"/>
		<path id="path468" class="st3" d="M240,50h10v10h-10V50"/>
		<path id="path470" class="st4" d="M230,50h10v10h-10V50"/>
		<path id="path472" class="st4" d="M220,50h10v10h-10V50"/>
		<path id="path474" class="st4" d="M210,50h10v10h-10V50"/>
		<path id="path476" class="st3" d="M200,50h10v10h-10V50"/>
		<path id="path478" class="st4" d="M190,50h10v10h-10V50"/>
		<path id="path480" class="st4" d="M180,50h10v10h-10V50"/>
		<path id="path482" class="st4" d="M170,50h10v10h-10V50"/>
		<path id="path484" class="st4" d="M160,50h10v10h-10V50"/>
		<path id="path486" class="st3" d="M150,50h10v10h-10V50"/>
		<path id="path488" class="st4" d="M140,50h10v10h-10V50"/>
		<path id="path490" class="st3" d="M130,50h10v10h-10V50"/>
		<path id="path492" class="st4" d="M120,50h10v10h-10V50"/>
		<path id="path494" class="st3" d="M110,50h10v10h-10V50"/>
		<path id="path496" class="st3" d="M100,50h10v10h-10V50"/>
		<path id="path498" class="st4" d="M90,50h10v10H90V50"/>
		<path id="path500" class="st3" d="M80,50h10v10H80V50"/>
		<path id="path502" class="st3" d="M70,50h10v10H70V50"/>
		<path id="path504" class="st4" d="M60,50h10v10H60V50"/>
		<path id="path506" class="st4" d="M50,50h10v10H50V50"/>
		<path id="path508" class="st4" d="M40,50h10v10H40V50"/>
		<path id="path510" class="st4" d="M30,50h10v10H30L30,50"/>
		<path id="path512" class="st4" d="M20,50h10v10H20V50"/>
		<path id="path514" class="st5" d="M10,50h10v10H10V50"/>
		<path id="path516" class="st1" d="M0,50h10v10H0V50"/>
		<path id="path518" class="st1" d="M420,60h10v10h-10V60"/>
		<path id="path520" class="st6" d="M410,60h10v10h-10V60"/>
		<path id="path522" class="st5" d="M400,60h10v10h-10V60"/>
		<path id="path524" class="st5" d="M390,60h10v10h-10V60"/>
		<path id="path526" class="st5" d="M380,60h10v10h-10V60"/>
		<path id="path528" class="st5" d="M370,60h10v10h-10V60"/>
		<path id="path530" class="st3" d="M360,60h10v10h-10V60"/>
		<path id="path532" class="st3" d="M350,60h10v10h-10V60"/>
		<path id="path534" class="st3" d="M340,60h10v10h-10V60"/>
		<path id="path536" class="st5" d="M330,60h10v10h-10V60"/>
		<path id="path538" class="st5" d="M320,60h10v10h-10V60"/>
		<path id="path540" class="st3" d="M310,60h10v10h-10V60"/>
		<path id="path542" class="st3" d="M300,60h10v10h-10V60"/>
		<path id="path544" class="st3" d="M290,60h10v10h-10V60"/>
		<path id="path546" class="st5" d="M280,60h10v10h-10V60"/>
		<path id="path548" class="st5" d="M270,60h10v10h-10V60"/>
		<path id="path550" class="st3" d="M260,60h10v10h-10V60"/>
		<path id="path552" class="st3" d="M250,60h10v10h-10V60"/>
		<path id="path554" class="st5" d="M240,60h10v10h-10V60"/>
		<path id="path556" class="st5" d="M230,60h10v10h-10V60"/>
		<path id="path558" class="st3" d="M220,60h10v10h-10V60"/>
		<path id="path560" class="st3" d="M210,60h10v10h-10V60"/>
		<path id="path562" class="st5" d="M200,60h10v10h-10V60"/>
		<path id="path564" class="st5" d="M190,60h10v10h-10V60"/>
		<path id="path566" class="st5" d="M180,60h10v10h-10V60"/>
		<path id="path568" class="st5" d="M170,60h10v10h-10V60"/>
		<path id="path570" class="st5" d="M160,60h10v10h-10V60"/>
		<path id="path572" class="st3" d="M150,60h10v10h-10V60"/>
		<path id="path574" class="st5" d="M140,60h10v10h-10V60"/>
		<path id="path576" class="st3" d="M130,60h10v10h-10V60"/>
		<path id="path578" class="st5" d="M120,60h10v10h-10V60"/>
		<path id="path580" class="st3" d="M110,60h10v10h-10V60"/>
		<path id="path582" class="st5" d="M100,60h10v10h-10V60"/>
		<path id="path584" class="st5" d="M90,60h10v10H90V60"/>
		<path id="path586" class="st5" d="M80,60h10v10H80V60"/>
		<path id="path588" class="st3" d="M70,60h10v10H70V60"/>
		<path id="path590" class="st5" d="M60,60h10v10H60V60"/>
		<path id="path592" class="st5" d="M50,60h10v10H50V60"/>
		<path id="path594" class="st5" d="M40,60h10v10H40V60"/>
		<path id="path596" class="st5" d="M30,60h10v10H30L30,60"/>
		<path id="path598" class="st5" d="M20,60h10v10H20V60"/>
		<path id="path600" class="st6" d="M10,60h10v10H10V60"/>
		<path id="path602" class="st1" d="M0,60h10v10H0V60"/>
		<path id="path604" class="st1" d="M410,70h10v10h-10V70"/>
		<path id="path606" class="st6" d="M400,70h10v10h-10V70"/>
		<path id="path608" class="st6" d="M390,70h10v10h-10V70"/>
		<path id="path610" class="st6" d="M380,70h10v10h-10V70"/>
		<path id="path612" class="st6" d="M370,70h10v10h-10V70"/>
		<path id="path614" class="st6" d="M360,70h10v10h-10V70"/>
		<path id="path616" class="st6" d="M350,70h10v10h-10V70"/>
		<path id="path618" class="st6" d="M340,70h10v10h-10V70"/>
		<path id="path620" class="st6" d="M330,70h10v10h-10V70"/>
		<path id="path622" class="st6" d="M320,70h10v10h-10V70"/>
		<path id="path624" class="st6" d="M310,70h10v10h-10V70"/>
		<path id="path626" class="st6" d="M300,70h10v10h-10V70"/>
		<path id="path628" class="st6" d="M290,70h10v10h-10V70"/>
		<path id="path630" class="st6" d="M280,70h10v10h-10V70"/>
		<path id="path632" class="st6" d="M270,70h10v10h-10V70"/>
		<path id="path634" class="st6" d="M260,70h10v10h-10V70"/>
		<path id="path636" class="st6" d="M250,70h10v10h-10V70"/>
		<path id="path638" class="st6" d="M240,70h10v10h-10V70"/>
		<path id="path640" class="st6" d="M230,70h10v10h-10V70"/>
		<path id="path642" class="st6" d="M220,70h10v10h-10V70"/>
		<path id="path644" class="st6" d="M210,70h10v10h-10V70"/>
		<path id="path646" class="st6" d="M200,70h10v10h-10V70"/>
		<path id="path648" class="st6" d="M190,70h10v10h-10V70"/>
		<path id="path650" class="st6" d="M180,70h10v10h-10V70"/>
		<path id="path652" class="st6" d="M170,70h10v10h-10V70"/>
		<path id="path654" class="st6" d="M160,70h10v10h-10V70"/>
		<path id="path656" class="st6" d="M150,70h10v10h-10V70"/>
		<path id="path658" class="st6" d="M140,70h10v10h-10V70"/>
		<path id="path660" class="st6" d="M130,70h10v10h-10V70"/>
		<path id="path662" class="st6" d="M120,70h10v10h-10V70"/>
		<path id="path664" class="st6" d="M110,70h10v10h-10V70"/>
		<path id="path666" class="st6" d="M100,70h10v10h-10V70"/>
		<path id="path668" class="st6" d="M90,70h10v10H90V70"/>
		<path id="path670" class="st6" d="M80,70h10v10H80V70"/>
		<path id="path672" class="st6" d="M70,70h10v10H70V70"/>
		<path id="path674" class="st6" d="M60,70h10v10H60V70"/>
		<path id="path676" class="st6" d="M50,70h10v10H50V70"/>
		<path id="path678" class="st6" d="M40,70h10v10H40V70"/>
		<path id="path680" class="st6" d="M30,70h10v10H30L30,70"/>
		<path id="path682" class="st6" d="M20,70h10v10H20V70"/>
		<path id="path684" class="st1" d="M10,70h10v10H10V70"/>
		<path id="path686" class="st1" d="M400,80h10v10h-10V80"/>
		<path id="path688" class="st1" d="M390,80h10v10h-10V80"/>
		<path id="path690" class="st1" d="M380,80h10v10h-10V80"/>
		<path id="path692" class="st1" d="M370,80h10v10h-10V80"/>
		<path id="path694" class="st1" d="M360,80h10v10h-10V80"/>
		<path id="path696" class="st1" d="M350,80h10v10h-10V80"/>
		<path id="path698" class="st1" d="M340,80h10v10h-10V80"/>
		<path id="path700" class="st1" d="M330,80h10v10h-10V80"/>
		<path id="path702" class="st1" d="M320,80h10v10h-10V80"/>
		<path id="path704" class="st1" d="M310,80h10v10h-10V80"/>
		<path id="path706" class="st1" d="M300,80h10v10h-10V80"/>
		<path id="path708" class="st1" d="M290,80h10v10h-10V80"/>
		<path id="path710" class="st1" d="M280,80h10v10h-10V80"/>
		<path id="path712" class="st1" d="M270,80h10v10h-10V80"/>
		<path id="path714" class="st1" d="M260,80h10v10h-10V80"/>
		<path id="path716" class="st1" d="M250,80h10v10h-10V80"/>
		<path id="path718" class="st1" d="M240,80h10v10h-10V80"/>
		<path id="path720" class="st1" d="M230,80h10v10h-10V80"/>
		<path id="path722" class="st1" d="M220,80h10v10h-10V80"/>
		<path id="path724" class="st1" d="M210,80h10v10h-10V80"/>
		<path id="path726" class="st1" d="M200,80h10v10h-10V80"/>
		<path id="path728" class="st1" d="M190,80h10v10h-10V80"/>
		<path id="path730" class="st1" d="M180,80h10v10h-10V80"/>
		<path id="path732" class="st1" d="M170,80h10v10h-10V80"/>
		<path id="path734" class="st1" d="M160,80h10v10h-10V80"/>
		<path id="path736" class="st1" d="M150,80h10v10h-10V80"/>
		<path id="path738" class="st1" d="M140,80h10v10h-10V80"/>
		<path id="path740" class="st1" d="M130,80h10v10h-10V80"/>
		<path id="path742" class="st1" d="M120,80h10v10h-10V80"/>
		<path id="path744" class="st1" d="M110,80h10v10h-10V80"/>
		<path id="path746" class="st1" d="M100,80h10v10h-10V80"/>
		<path id="path748" class="st1" d="M90,80h10v10H90V80"/>
		<path id="path750" class="st1" d="M80,80h10v10H80V80"/>
		<path id="path752" class="st1" d="M70,80h10v10H70V80"/>
		<path id="path754" class="st1" d="M60,80h10v10H60V80"/>
		<path id="path756" class="st1" d="M50,80h10v10H50V80"/>
		<path id="path758" class="st1" d="M40,80h10v10H40V80"/>
		<path id="path760" class="st1" d="M30,80h10v10H30L30,80"/>
		<path id="path762" class="st1" d="M20,80h10v10H20V80"/>
	</g>
</g>
</svg>
